<?xml version="1.0" encoding="utf-8"?>
<!-- Generator: Adobe Illustrator 24.0.1, SVG Export Plug-In . SVG Version: 6.00 Build 0)  -->
<svg version="1.1" id="Capa_1" xmlns="http://www.w3.org/2000/svg" xmlns:xlink="http://www.w3.org/1999/xlink" x="0px" y="0px"
	 viewBox="0 0 106.7 106.7" style="enable-background:new 0 0 106.7 106.7;" xml:space="preserve">
<style type="text/css">
	.st0{fill:#FFFFFF;}
</style>
<path id="Trazado_73" class="st0" d="M79.1,62.4c-10.3,0-18.7,8.3-18.7,18.5s8.4,18.5,18.7,18.5c10.3,0,18.7-8.3,18.7-18.5v0
	C97.8,70.7,89.4,62.4,79.1,62.4z M79.1,92c-6.2,0-11.2-5-11.2-11.1c0-6.1,5-11.1,11.2-11.1c6.2,0,11.2,5,11.2,11.1
	C90.3,87,85.3,92,79.1,92z"/>
<path id="Trazado_74" class="st0" d="M9,47.6h42.9l-21.4-37L9,47.6z M21.9,40.2l8.5-14.7l8.5,14.7L21.9,40.2z"/>
<path id="Trazado_75" class="st0" d="M60.3,47.6h37.4v-37H60.3V47.6z M67.8,18h22.5v22.2H67.8V18z"/>
<path id="Trazado_76" class="st0" d="M17.3,99l13.1-12.9L43.5,99l5.3-5.2L35.7,80.9l13.1-12.9l-5.3-5.2L30.4,75.6L17.3,62.7L12,67.9
	l13.1,12.9L12,93.8L17.3,99z"/>
</svg>
