<?xml version="1.0" encoding="utf-8"?>
<!-- Generator: Adobe Illustrator 24.0.1, SVG Export Plug-In . SVG Version: 6.00 Build 0)  -->
<svg version="1.1" id="Capa_1" xmlns="http://www.w3.org/2000/svg" xmlns:xlink="http://www.w3.org/1999/xlink" x="0px" y="0px"
	 viewBox="0 0 106.7 106.7" style="enable-background:new 0 0 106.7 106.7;" xml:space="preserve">
<style type="text/css">
	.st0{fill:#FFFFFF;}
</style>
<path id="Trazado_72" class="st0" d="M22.7,45.8c0.3,0.4,0.5,0.8,0.5,1.3v4.5c0,0.8-0.7,1.5-1.5,1.5h-3.4c-0.8,0-1.5-0.7-1.5-1.5
	v-4.5c0-0.6,0.3-1.1,0.7-1.5l2.1-2.3c0.2-0.2,0.5-0.2,0.7-0.1c0,0,0,0,0.1,0.1L22.7,45.8L22.7,45.8z M18.9,41.5l-2.5-2.3v0
	c-0.4-0.3-0.8-0.5-1.3-0.5h-4.4c-0.8,0-1.5,0.7-1.5,1.5v3.4c0,0.8,0.7,1.5,1.5,1.5h4.4c0.6,0,1.1-0.3,1.5-0.7l2.3-2.1
	C19.1,42.1,19.1,41.8,18.9,41.5C18.9,41.6,18.9,41.6,18.9,41.5z M41.8,41.1h22.9c1.1,0,2.1-0.9,2.1-2.1v-12c0-1.1-0.9-2.1-2.1-2.1
	H41.8c-1.1,0-2.1,0.9-2.1,2.1v12C39.7,40.2,40.7,41.1,41.8,41.1L41.8,41.1z M19.6,41.1c0.2,0.2,0.5,0.2,0.7,0c0,0,0,0,0,0l2.3-2.5h0
	c0.3-0.4,0.5-0.8,0.5-1.3v-4.5c0-0.8-0.7-1.5-1.5-1.5h-3.4c-0.8,0-1.5,0.7-1.5,1.5c0,0,0,0,0,0v4.5c0,0.6,0.3,1.1,0.7,1.5L19.6,41.1
	z M94.3,38.2c1.9,0,3.5,1.6,3.5,3.5c0,1.9-1.6,3.5-3.5,3.5c-1.9,0-3.5-1.6-3.5-3.5c0,0,0,0,0,0C90.8,39.8,92.4,38.2,94.3,38.2
	L94.3,38.2z M94.3,39.4c-1.3,0-2.3,1-2.3,2.3c0,1.3,1,2.3,2.3,2.3c1.3,0,2.3-1,2.3-2.3c0,0,0,0,0,0C96.6,40.4,95.6,39.4,94.3,39.4
	L94.3,39.4z M84.8,35.4h3.4l-1.7-2.9L84.8,35.4z M90,34.2c0,1.9-1.6,3.5-3.5,3.5c-1.9,0-3.5-1.6-3.5-3.5s1.6-3.5,3.5-3.5
	C88.4,30.6,90,32.2,90,34.2C90,34.2,90,34.2,90,34.2z M88.9,35.8l-2.4-4.1L84,35.8H88.9z M92.4,41.7c0,1,0.8,1.9,1.9,1.9
	c1,0,1.9-0.8,1.9-1.9c0-1-0.8-1.9-1.9-1.9c0,0,0,0,0,0C93.3,39.8,92.4,40.7,92.4,41.7L92.4,41.7z M90,49.3c0,1.9-1.6,3.5-3.5,3.5
	c-1.9,0-3.5-1.6-3.5-3.5c0-1.9,1.6-3.5,3.5-3.5c0,0,0,0,0,0C88.4,45.8,90,47.4,90,49.3z M87,49.3l1.6-1.6l-0.4-0.4l-1.6,1.7
	l-1.6-1.7l-0.4,0.4l1.6,1.6L84.5,51l0.4,0.4l1.6-1.6l1.6,1.6l0.4-0.4L87,49.3z M106.4,77.4c0,3.5-0.8,5.9-4.2,8.7
	c-5.9,4.6-13.8,1.6-15.5-0.9c-1.7-2.5-3.1-6.4-4.3-9.7c-0.9-2.7-1.9-5.5-2.8-8.2c-0.3-0.8-1-1.3-1.8-1.5c-0.1,0-0.3,0-0.4,0.1
	c-3.9,3-9.3,2.9-13.1-0.2c-0.2-0.2-0.5-0.3-0.8-0.3c-1.2,0-4.2,0-7.1,0v0c-0.6,0-1.9,0-3.3,0s-2.7,0-3.3,0v0c-3,0-6,0-7.1,0
	c-0.3,0-0.5,0.1-0.8,0.3c-3.8,3.1-9.2,3.2-13.2,0.2c-0.1-0.1-0.3-0.2-0.4-0.1c-0.8,0.2-1.4,0.8-1.8,1.5c-0.9,2.7-1.8,5.5-2.8,8.2
	c-1.1,3.4-2.6,7.2-4.3,9.7c-1.7,2.5-9.6,5.5-15.5,0.9c-3.4-2.8-4.1-5.2-4.2-8.7c0-2.7,0.1-5.3,0.4-7.9C1,64.2,2,58.9,3,53.7
	c1.1-5.1,2.3-10.3,3.8-15.3c0.6-2.3,1.6-4.5,2.8-6.5c1-1.6,2-3.1,3.1-4.7c0.2-0.3,0.5-0.5,0.9-0.7c0.2-0.1,0.4-0.2,0.4-0.5
	c0-0.2,0.1-0.4,0.3-0.5c0.2-0.2,0.5-0.3,0.7-0.4c3.6-1.5,7.6-1.6,11.2-0.2c0.3,0.1,0.5,0.4,0.5,0.7c0,0.5,0.2,0.8,0.7,0.9
	c0,0,0.1,0,0.1,0c0.9,0.4,1.9,0.6,2.8,0.6h8.4l0,11.9c0,1.7,1.4,3.1,3.1,3.1h22.9c1.7,0,3.1-1.4,3.1-3.1V27.2H76c1,0,2-0.2,2.8-0.6
	c0,0,0.1,0,0.1,0c0.5,0,0.7-0.3,0.7-0.9c0-0.3,0.2-0.6,0.5-0.7c3.6-1.4,7.7-1.4,11.2,0.2c0.3,0.1,0.5,0.2,0.7,0.4
	c0.2,0.1,0.3,0.3,0.3,0.5c0,0.3,0.2,0.4,0.4,0.5c0.3,0.2,0.6,0.4,0.9,0.7c1.1,1.5,2.1,3.1,3.1,4.7c1.3,2,2.2,4.2,2.8,6.5
	c1.5,5,2.7,10.1,3.8,15.3c1.1,5.2,2,10.5,2.6,15.8C106.3,72.1,106.4,74.8,106.4,77.4L106.4,77.4z M33,35.3c0,1.2,1,2.2,2.1,2.2
	c1.2,0,2.1-1,2.1-2.2v-4.4c0-1.2-1-2.2-2.1-2.2c-1.2,0-2.1,1-2.1,2.2l0,0V35.3z M32.1,41.9c0-6.7-5.4-12.1-12-12.1
	c-6.6,0-12,5.4-12,12.1c0,6.7,5.4,12.1,12,12.1C26.7,54,32.1,48.6,32.1,41.9L32.1,41.9z M41.8,59.8c0-3.5-2.8-6.3-6.3-6.3
	c-3.5,0-6.3,2.8-6.3,6.3c0,3.5,2.8,6.3,6.3,6.3c0,0,0,0,0,0C39,66.1,41.8,63.3,41.8,59.8z M52.8,59.9c0.1,0,0.2,0,0.4,0
	c0.4,0,0.7-0.2,0.9-0.5c0.1-0.2,0.2-0.5,0.1-0.8c0-0.6-0.5-1-1-1H48c0,0.1,0,0.2,0,0.3c0,0.1,0,0.1,0.1,0.1c0.9,0,1.8,0,2.7,0h1.9
	c0.3,0,0.5,0.2,0.6,0.5c0,0.1,0,0.3,0,0.4c0,0.3-0.3,0.5-0.6,0.5c0,0,0,0-0.1,0c-1.2,0-2.4,0-3.6,0c-0.6,0-1,0.4-1.1,1
	c0,0.5,0,0.9,0,1.4c0,0.1,0,0.1,0.1,0.1c0.2,0,0.5,0,0.7,0c0.1,0,0.1,0,0.1-0.1c0-0.3,0-0.7,0-1c0-0.1,0-0.2,0-0.3
	c0-0.3,0.3-0.6,0.6-0.6c0,0,0,0,0,0C50.6,60,51.7,59.9,52.8,59.9L52.8,59.9z M59.9,57.7L59.9,57.7c-1,0-2,0-3,0
	c-0.3,0-0.6,0.2-0.8,0.4c-0.1,0.2-0.2,0.4-0.2,0.7c0,0.7,0,1.4,0,2c0,0.3-0.2,0.6-0.5,0.7c0,0-0.1,0-0.1,0c-0.8,0-1.6,0-2.4,0
	c0,0,0,0-0.1,0c-0.1,0-0.1,0-0.1,0.1c0,0.1,0,0.2,0,0.3c0,0.1,0,0.1,0.1,0.1c1,0,1.9,0,2.9,0c0.2,0,0.5-0.1,0.7-0.2
	c0.3-0.2,0.5-0.6,0.5-0.9c0-0.7,0-1.3,0-2c0-0.1,0-0.2,0-0.2c0-0.2,0.2-0.4,0.4-0.5c0.1,0,0.1,0,0.2,0h2.3c0,0,0,0,0.1,0
	c0,0,0.1,0,0.1-0.1C59.9,57.9,59.9,57.8,59.9,57.7L59.9,57.7z M69.1,35.3c0,1.2,1,2.2,2.1,2.2c1.2,0,2.1-1,2.1-2.2c0,0,0,0,0,0v-4.4
	c0-1.2-1-2.2-2.1-2.2s-2.1,1-2.1,2.2c0,0,0,0,0,0V35.3z M77.1,59.8c0-3.5-2.8-6.3-6.3-6.3c-3.5,0-6.3,2.8-6.3,6.3
	c0,3.5,2.8,6.3,6.3,6.3c0,0,0,0,0,0C74.3,66.1,77.1,63.3,77.1,59.8L77.1,59.8z M98.4,41.9c0-6.7-5.4-12.1-12-12.1
	c-6.6,0-12,5.4-12,12.1c0,6.7,5.4,12.1,12,12.1c0,0,0,0,0,0C93,54,98.4,48.6,98.4,41.9L98.4,41.9z M82.4,41.7c0,1.9-1.6,3.5-3.5,3.5
	c-1.9,0-3.5-1.6-3.5-3.5c0-1.9,1.6-3.5,3.5-3.5c0,0,0,0,0,0C80.8,38.2,82.4,39.8,82.4,41.7C82.4,41.7,82.4,41.7,82.4,41.7L82.4,41.7
	z M80.8,39.8H77v3.8h3.8V39.8z M29.2,38.7h-4.4c-0.5,0-0.9,0.2-1.3,0.5v0L21,41.5c-0.2,0.2-0.2,0.5,0,0.7c0,0,0,0,0,0l2.3,2.1
	c0.4,0.4,0.9,0.7,1.5,0.7h4.4c0.8,0,1.5-0.7,1.5-1.5v-3.4C30.7,39.4,30,38.7,29.2,38.7C29.2,38.7,29.2,38.7,29.2,38.7z M80.3,40.2
	h-2.9v3h2.9V40.2z"/>
</svg>
