<?xml version="1.0" encoding="utf-8"?>
<!-- Generator: Adobe Illustrator 24.0.1, SVG Export Plug-In . SVG Version: 6.00 Build 0)  -->
<svg version="1.1" id="Capa_1" xmlns="http://www.w3.org/2000/svg" xmlns:xlink="http://www.w3.org/1999/xlink" x="0px" y="0px"
	 viewBox="0 0 512 512" style="enable-background:new 0 0 512 512;" xml:space="preserve">
<style type="text/css">
	.st0{fill:#555E6B;}
	.st1{fill:#363C44;}
	.st2{fill:#414954;}
	.st3{fill:#434B56;}
	.st4{fill:#A7B7C6;}
	.st5{fill:#96ABBC;}
	.st6{fill:#2E343A;}
	.st7{fill:#CDD2DF;}
	.st8{fill:#7A6CF7;}
	.st9{fill:#788A9E;}
	.st10{fill:#BBC6D4;}
	.st11{fill:#282828;}
	.st12{fill:none;}
	.st13{fill:#FFFFFF;}
</style>
<path class="st0" d="M152.4,0H34.8c-9.6,0-17.3,7.7-17.3,17.3v469.6h152.2V17.3C169.7,7.7,161.9,0,152.4,0z"/>
<path class="st1" d="M172.4,512H13c-6.1,0-10-6.4-7.3-11.8l11.7-23.3h152.4l10.1,23.8C182.2,506,178.3,512,172.4,512z"/>
<g>
	<rect x="84.4" class="st2" width="15.7" height="476.9"/>
	<rect x="17.5" y="159.8" class="st2" width="152.2" height="15.7"/>
</g>
<path class="st3" d="M169.7,262.7c-5.9,3.2-10.8,8.1-14.2,14.1l-4.4,7.9c-30.6,55.2-45.9,117.5-44.4,180.6l0.3,11.5h62.6
	L169.7,262.7L169.7,262.7z"/>
<path class="st4" d="M318.7,278.4h94.8c2.4,0,4.7-1,6.4-2.7l0,0c1.7-1.7,4-2.7,6.4-2.7h9.3c11.7,0,22.5,6.4,28.2,16.6l3.9,7
	c27.2,49,40.8,104.4,39.4,160.5l-0.4,16.5c-0.5,21.3-17.9,38.2-39.2,38.2l0,0c-17.4,0-32.8-11.5-37.6-28.2l-15.2-52.2
	c-4-13.6-16.5-23-30.7-23h-65.3h-65.3c-14.2,0-26.7,9.4-30.7,23l-15.2,52.2c-4.9,16.7-20.2,28.2-37.6,28.2l0,0
	c-21.3,0-38.6-17-39.2-38.2l-0.4-16.5c-1.4-56.1,12.2-111.5,39.4-160.5l3.9-7c5.7-10.2,16.5-16.6,28.2-16.6h9.3c2.4,0,4.7,1,6.4,2.7
	l0,0c1.7,1.7,4,2.7,6.4,2.7H318.7"/>
<g>
	<path class="st5" d="M182.2,431.6L167,483.8c-2.8,9.7-9.2,17.6-17.4,22.6c5.9,3.6,12.9,5.7,20.3,5.7l0,0
		c17.4,0,32.8-11.5,37.6-28.2l15.2-52.2c4-13.6,16.5-23,30.7-23h-40.5C198.7,408.6,186.2,417.9,182.2,431.6z"/>
	<path class="st5" d="M224,278.4c-2.4,0-4.7-1-6.4-2.7s-4-2.7-6.4-2.7h-9.3c-6.4,0-12.5,1.9-17.7,5.3L224,278.4L224,278.4z"/>
	<path class="st5" d="M467.7,296.7l-3.9-7c-5.7-10.2-16.5-16.6-28.2-16.6h-9.3c-2.4,0-4.7,1-6.4,2.7s-4,2.7-6.4,2.7h-0.8
		c4.3,2.8,7.9,6.6,10.5,11.3l3.9,7c27.2,49,40.8,104.4,39.4,160.5l-0.4,16.5c-0.3,13.8-7.8,25.9-18.9,32.6c6,3.6,12.9,5.7,20.3,5.7
		l0,0c21.3,0,38.6-17,39.2-38.2l0.4-16.5C508.5,401.2,494.9,345.8,467.7,296.7z"/>
</g>
<path class="st6" d="M179.8,500.3l-10-23.5H107l0.2,7.1c0.3,10.8,4.4,20.5,11,28h53.9C175.4,507,176.5,505.3,179.8,500.3z"/>
<circle class="st7" cx="258.7" cy="374.4" r="34.2"/>
<path class="st8" d="M136.7,99.2c-4.3,0-7.8-3.5-7.8-7.8V42.3c0-4.3,3.5-7.8,7.8-7.8c4.3,0,7.8,3.5,7.8,7.8v49.1
	C144.5,95.7,141,99.2,136.7,99.2z"/>
<circle class="st9" cx="249.3" cy="360.6" r="17.1"/>
<circle class="st7" cx="378.7" cy="374.4" r="34.2"/>
<circle class="st9" cx="389.3" cy="360.6" r="17.1"/>
<g>
	<circle class="st5" cx="203.8" cy="320.7" r="41.5"/>
	<circle class="st5" cx="432.3" cy="322" r="40.1"/>
</g>
<path class="st7" d="M168.1,460.9c-18-4.7-29.2-12.1-37.8-17.7c-0.1,4.7-0.1,9.4,0,14.1l0.4,16.5C131.3,495,148.7,512,170,512l0,0
	c17.4,0,32.8-11.5,37.6-28.2l5.5-18.9C199.5,465.6,183.8,465,168.1,460.9z"/>
<path class="st10" d="M207.6,483.8l5.5-18.9c-12.1,0.7-25.8,0.3-39.8-2.7l-6.3,21.7c-2.8,9.7-9.2,17.6-17.4,22.6
	c5.9,3.6,12.9,5.7,20.3,5.7C187.4,512,202.7,500.5,207.6,483.8z"/>
<path class="st7" d="M469.3,460.9c18-4.7,29.2-12.1,37.8-17.7c0.1,4.7,0.1,9.4,0,14.1l-0.4,16.5c-0.5,21.3-17.9,38.2-39.2,38.2l0,0
	c-17.4,0-32.8-11.5-37.6-28.2l-5.5-18.9C437.9,465.6,453.6,465,469.3,460.9z"/>
<path class="st10" d="M469.3,460.9c-1,0.3-1.9,0.5-2.9,0.7l-0.3,12.2c-0.3,13.8-7.8,25.9-18.9,32.6c6,3.6,12.9,5.7,20.3,5.7
	c21.3,0,38.6-17,39.2-38.2l0.4-16.5c0.1-4.7,0.1-9.4,0-14.1C498.5,448.7,487.4,456.1,469.3,460.9z"/>
<path class="st9" d="M344,318.2h-47.5c-10.1,0-18.3-8.2-18.3-18.3v-21.5h84.1v21.5C362.3,310,354.1,318.2,344,318.2z"/>
<circle cx="432.3" cy="306.7" r="7.8"/>
<circle cx="432.3" cy="337.3" r="7.8"/>
<circle cx="416.7" cy="321.6" r="7.8"/>
<circle cx="448" cy="321.6" r="7.8"/>
<circle cx="205.1" cy="306.8" r="7.8"/>
<circle cx="205.1" cy="337.4" r="7.8"/>
<circle cx="189.4" cy="321.7" r="7.8"/>
<circle cx="220.8" cy="321.7" r="7.8"/>
<g id="game" transform="translate(451 326.755)">
	<g id="Grupo_14" transform="translate(-451 -338.818)">
		<path id="Trazado_38" class="st11" d="M116.8,145.4l-1.5,0.6c-2.3,1-3.5,2-3.5,2.9c0.1,1.3,1.6,2.3,4.4,3
			c3.5,0.9,7.2,1.2,10.8,0.6v-3.7l0,0L124,150c-3.1,1.1-4.7,0.2-4.7,0.2c-0.5-0.3-0.7-1,0.6-1.5l1.6-0.6l5.4-1.9v-4.3l-1.4,0.5
			L116.8,145.4z"/>
		<path id="Trazado_39" class="st11" d="M139.2,130.5v11.1c2.3,1.1,4.4,1.2,5.9,0c1.6-1.1,2.4-3,2.4-5.9c0-3-0.6-5.3-1.9-6.9
			c-1.2-1.6-3.3-3-6.5-4.1c-3.9-1.3-7.3-2.4-9.9-2.9v33.1l7.1,2.2v-27.5C136.3,127.8,139.2,128,139.2,130.5z"/>
		<path id="Trazado_40" class="st11" d="M157.4,147.5c0-1.2-1.4-2.1-3.8-2.9c-2.5-0.9-5-1.3-7.6-1.2c-2.6,0.2-5.2,0.7-7.7,1.6v4.2
			l6.9-2.4c1.2-0.4,2.6-0.5,3.9-0.3c1.4,0.3,1.3,1.1-0.1,1.6l-1.6,0.6l-9.1,3.3v4.3l4.3-1.5l10.3-3.6l1.2-0.6
			C156.4,149.8,157.5,148.8,157.4,147.5z"/>
	</g>
</g>
<g id="game_1_" transform="translate(451 326.755)">
	<g id="Grupo_14_1_" transform="translate(-451 -338.818)">
		<path id="Trazado_38_1_" class="st11" d="M306.7,392.2l-1,0.4c-1.6,0.7-2.4,1.4-2.3,2c0.1,0.9,1.1,1.6,2.9,2
			c2.4,0.6,4.9,0.8,7.3,0.4v-2.5l0,0l-2,0.7c-2.1,0.7-3.1,0.1-3.1,0.1c-0.3-0.2-0.5-0.7,0.4-1l1.1-0.4l3.6-1.3v-2.9l-0.9,0.3
			L306.7,392.2z"/>
		<path id="Trazado_39_1_" class="st11" d="M321.9,382.1v7.5c1.6,0.7,2.9,0.8,4,0c1.1-0.7,1.6-2,1.6-4c0-2-0.4-3.6-1.3-4.6
			c-0.8-1.1-2.2-2-4.4-2.7c-2.6-0.9-4.9-1.6-6.7-2v22.3l4.8,1.5v-18.5C319.9,380.3,321.9,380.4,321.9,382.1z"/>
		<path id="Trazado_40_1_" class="st11" d="M334.1,393.6c0-0.8-1-1.4-2.6-1.9c-1.7-0.6-3.4-0.9-5.2-0.8c-1.8,0.1-3.5,0.5-5.2,1.1
			v2.8l4.7-1.6c0.8-0.3,1.7-0.4,2.6-0.2c0.9,0.2,0.9,0.7-0.1,1.1l-1.1,0.4l-6.2,2.2v2.9l2.9-1l6.9-2.4l0.8-0.4
			C333.4,395.1,334.2,394.4,334.1,393.6z"/>
	</g>
</g>
<g id="playstation-4" transform="translate(0.002)">
	<path id="Trazado_60" class="st12" d="M454.3,191.8H280.5V227h174.2v-35.2H454.3z M447.2,222.7h3v0.5H449v3.5h-0.5v-3.5h-1.3
		L447.2,222.7z"/>
	<path id="Trazado_61" class="st13" d="M448.5,226.6h0.5v-3.5h1.3v-0.5h-3v0.5h1.3L448.5,226.6z"/>
	<path id="Trazado_62" class="st12" d="M454.3,191.8H280.5V227h174.2v-35.2H454.3z M450.7,222.7h0.7l1.1,3.3l1.1-3.3h0.6v3.9h-0.4
		v-3.2l-1.1,3.2h-0.5l-1.1-3.2v3.2h-0.5C450.7,226.6,450.7,222.7,450.7,222.7z"/>
	<path id="Trazado_63" class="st13" d="M451.3,223.5l1.1,3.2h0.5l1.1-3.2v3.2h0.4v-3.9h-0.6l-1.1,3.3l-1.1-3.3h-0.7v3.9h0.5
		L451.3,223.5z M364.1,217.3v-16.2c0-3.3,1.5-5.7,4.8-5.7h20.3c0.1,0,0.2-0.1,0.2-0.2v-3.2c0,0,0-0.1,0-0.1h-24.8
		c-5.4,0.7-8,4.4-8,9.2v16.2c0,3.3-1.6,5.7-4.8,5.7h-21.4c-0.1,0-0.2,0.1-0.2,0.2c0,0,0,0,0,0v3.2c0,0.1,0.1,0.2,0.2,0.3h24.3
		C361,226.5,364.1,222.5,364.1,217.3L364.1,217.3z M280.7,226.7h7.1c0.1,0,0.2-0.2,0.2-0.3v-10.3c0-3.3,1.9-5.6,4.6-5.6h29.4
		c6.6,0,9.8-4.1,9.8-9.4c0-4.8-2.6-8.5-8-9.2h-43.2c0,0,0,0.1,0,0.1v3.2c0,0.1,0.1,0.2,0.2,0.2c0,0,0,0,0.1,0h38.7
		c3.3,0,4.8,2.4,4.8,5.7s-1.5,5.7-4.8,5.7h-30.6c-4.8,0-8.3,4-8.3,9.3v10.3C280.5,226.5,280.6,226.6,280.7,226.7L280.7,226.7z"/>
	<g id="Grupo_18" transform="translate(405.483 25.939)">
		<path id="Trazado_65" class="st13" d="M-16.1,197h39c0.1,0,0.2,0.1,0.2,0.2v3.3c0,0.1,0.1,0.2,0.2,0.2c0,0,0,0,0,0h7
			c0.1,0,0.2-0.1,0.2-0.2c0,0,0,0,0,0v-3.2c0-0.1,0.1-0.2,0.2-0.2h7c0.1,0,0.2-0.1,0.2-0.2c0,0,0,0,0,0v-3.3c0-0.1-0.1-0.2-0.2-0.2
			c0,0,0,0,0,0h-7c-0.1,0-0.2-0.1-0.2-0.2v-23.6c0-1.9-0.7-3.1-1.9-3.6h-2c-0.7,0.2-1.4,0.5-2.1,0.9l-42,25.9c-1.6,1-2.2,2.2-1.8,3
			C-18.9,196.5-18,197-16.1,197L-16.1,197z M-10.1,192.7l32.5-20.1c0.2-0.1,0.4-0.1,0.5,0c0.1,0.1,0.1,0.2,0.1,0.3V193
			c0,0.1-0.1,0.2-0.2,0.2H-9.9c-0.3,0-0.4-0.1-0.4-0.2C-10.3,192.9-10.3,192.8-10.1,192.7L-10.1,192.7z"/>
	</g>
	<g id="Grupo_19" transform="translate(-0.002)">
		<path id="Trazado_66" class="st13" d="M210,178.8c3.2,0.6,6.3,1.4,9.4,2.3c1.8,0.5,3.5,1,5.3,1.6c2.8,0.8,5.5,1.9,8,3.4
			c1.1,0.7,2.2,1.5,3.1,2.4c1,1,1.8,2.1,2.4,3.4c1,2.3,1.5,4.8,1.6,7.3c0.1,1.6,0,3.3-0.3,4.9c-0.2,1.4-0.7,2.8-1.5,4
			c-0.7,1.1-1.6,2-2.7,2.6c-1.1,0.6-2.3,0.9-3.5,0.8c-1.8,0-3.6-0.5-5.3-1.3c0-5.5,0-11,0-16.5c0-1,0-2-0.1-3c-0.1-0.8-0.5-1.5-1-2
			c-0.4-0.3-0.9-0.6-1.4-0.7c-0.5-0.1-1.1,0.1-1.4,0.5c-0.5,0.7-0.7,1.5-0.7,2.4c0,14.7,0,29.4,0,44.1c-4-1.3-7.9-2.5-11.9-3.8
			C210,213.8,210,196.3,210,178.8z M192.2,216c5.2-1.8,10.3-3.7,15.5-5.5c0,2,0,4,0,6.1c0,0.3,0,0.5,0,0.8
			c-4.1,1.4-8.1,2.9-12.2,4.4c-0.6,0.2-1.1,0.5-1.6,0.9c-0.2,0.2-0.3,0.5-0.3,0.8c0.2,0.3,0.5,0.6,0.8,0.7c0.9,0.3,1.9,0.5,2.8,0.5
			c1.1,0,2.1-0.1,3.2-0.3c0.7-0.2,1.4-0.4,2-0.6c1.7-0.6,3.5-1.3,5.2-1.9c0,1.7,0,3.4,0,5.1c0,0.3,0,0.7,0,1
			c-2.1,0.4-4.3,0.6-6.5,0.7c-4.4,0.1-8.8-0.6-12.9-1.9c-1.4-0.4-2.7-1-3.9-1.8c-0.7-0.5-1.2-1.1-1.5-1.8c-0.2-0.6-0.2-1.4,0.1-2
			c0.3-0.6,0.8-1.1,1.3-1.5c1.3-0.9,2.7-1.6,4.1-2.2C189.7,216.9,191,216.5,192.2,216L192.2,216z"/>
		<path id="Trazado_67" class="st13" d="M233.7,213.7c1.2-0.1,2.3-0.2,3.5-0.2c3.9,0,7.7,0.5,11.5,1.7c0.7,0.2,1.4,0.5,2.2,0.7
			c1.3,0.4,2.5,1.1,3.6,2c0.7,0.5,1.1,1.3,1.2,2.2c0,0.7-0.3,1.4-0.7,1.9c-0.9,0.9-2,1.7-3.2,2.2c-1.3,0.6-2.5,1.1-3.9,1.5
			c-7.9,2.8-15.8,5.7-23.7,8.5c0-2.2,0-4.4,0-6.6c0-0.1,0-0.2,0.1-0.3c6-2.1,12-4.3,18-6.4c0.8-0.2,1.6-0.6,2.4-1.1
			c0.3-0.2,0.5-0.6,0.4-1c-0.2-0.3-0.5-0.5-0.8-0.7c-0.9-0.3-1.9-0.5-2.8-0.5c-1.5,0-3,0.2-4.4,0.7c-4.3,1.5-8.6,3-12.8,4.5
			c0-2.4,0-4.8,0-7.1C227.2,214.8,230.4,214.1,233.7,213.7z M251.3,230.1c1.5-0.2,2.8,0.9,3,2.4c0.2,1.5-0.9,2.8-2.4,3
			c-1.5,0.2-2.8-0.9-3-2.4c-0.1-0.5,0-0.9,0.2-1.4C249.4,230.8,250.3,230.2,251.3,230.1L251.3,230.1z M251,230.6
			c-1.2,0.3-2,1.5-1.7,2.7c0.1,0.6,0.5,1.1,1,1.4c1,0.7,2.4,0.4,3.1-0.7c0.3-0.5,0.4-1.2,0.3-1.8c-0.2-0.6-0.6-1.1-1.1-1.4
			C252.1,230.5,251.6,230.4,251,230.6L251,230.6z"/>
		<path id="Trazado_68" class="st13" d="M250.4,231.2c0.5,0,1,0,1.5,0c0.3,0,0.6,0.1,0.8,0.3c0.2,0.2,0.2,0.5,0.2,0.8
			c0,0.2-0.2,0.3-0.3,0.4c0.1,0.1,0.2,0.2,0.3,0.3c0,0.3,0,0.6,0.1,0.9c0.1,0.1,0.1,0.2,0.1,0.3c-0.2,0-0.4,0-0.6,0
			c-0.1-0.3,0-0.7-0.1-1c0-0.1-0.2-0.2-0.3-0.2c-0.3,0-0.7,0-1,0c0,0.4,0,0.8,0,1.2c-0.2,0-0.3,0-0.5,0
			C250.4,233.2,250.4,232.2,250.4,231.2L250.4,231.2z M250.9,231.7v0.8c0.3,0,0.6,0,0.9,0c0.2,0,0.3,0,0.4-0.2
			c0.1-0.2,0.1-0.4,0-0.5c-0.1-0.1-0.2-0.2-0.4-0.1C251.6,231.7,251.2,231.7,250.9,231.7L250.9,231.7z"/>
	</g>
</g>
</svg>
